<?xml version="1.0" encoding="utf-8"?>
<!-- Generator: Adobe Illustrator 16.0.0, SVG Export Plug-In . SVG Version: 6.00 Build 0)  -->
<!DOCTYPE svg PUBLIC "-//W3C//DTD SVG 1.1//EN" "http://www.w3.org/Graphics/SVG/1.1/DTD/svg11.dtd">
<svg version="1.1" id="Ebene_1" xmlns="http://www.w3.org/2000/svg" xmlns:xlink="http://www.w3.org/1999/xlink" x="0px" y="0px"
	 width="289.486px" height="269.986px" viewBox="0 0 289.486 269.986" enable-background="new 0 0 289.486 269.986"
	 xml:space="preserve">
<g>
	<path fill="#FFFFFF" d="M221.641,227.685l-0.643-0.768c25.76-21.548,40.534-53.148,40.534-86.698
		c0-31.743-13.475-62.209-36.969-83.587l0.674-0.739c23.701,21.567,37.295,52.303,37.295,84.327
		C262.533,174.065,247.628,205.945,221.641,227.685z"/>
</g>
<g>
	<path fill="#FFFFFF" d="M75.469,227.687c-25.989-21.738-40.895-53.619-40.895-87.468c0-32.02,13.592-62.755,37.291-84.324
		l0.673,0.739c-23.491,21.38-36.963,51.845-36.963,83.584c0,33.552,14.775,65.153,40.537,86.7L75.469,227.687z"/>
</g>
<g>
	<path fill="none" stroke="#2A3C48" stroke-miterlimit="10" d="M97.948,241.816"/>
</g>
<g>
	<path fill="#FFFFFF" d="M101.375,236.995l-1.075,0.489c-0.346-1.121-1.142-2.099-2.183-2.637c-2.137-1.104-4.706-0.342-5.782,1.74
		c-1.069,2.068-0.212,4.618,1.924,5.723c1.041,0.538,2.279,0.63,3.386,0.312l0.278,1.086c-1.388,0.396-2.959,0.32-4.27-0.357
		c-2.731-1.411-3.797-4.652-2.413-7.329c1.369-2.649,4.643-3.613,7.387-2.194C99.924,234.498,100.91,235.675,101.375,236.995z"/>
	<path fill="#FFFFFF" d="M100.692,245.469l4.739,1.995l-0.398,0.954l-6.059-2.545l0.346-0.828l6.97-3.668l-4.5-1.895l0.398-0.955
		l5.819,2.446l-0.346,0.828L100.692,245.469z"/>
	<path fill="#FFFFFF" d="M114.994,248.063l-6.207-2.066c-0.293,1.554,0.477,2.853,1.949,3.343c0.938,0.312,1.872,0.254,2.67-0.169
		l0.399,0.87c-0.99,0.568-2.213,0.675-3.482,0.252c-2.237-0.745-3.258-2.833-2.504-5.1c0.755-2.266,2.838-3.32,5.046-2.585
		C115.324,243.411,115.969,245.519,114.994,248.063z M114.291,246.804c0.413-1.482-0.261-2.733-1.747-3.229
		c-1.444-0.48-2.796,0.112-3.449,1.498L114.291,246.804z"/>
	<path fill="#FFFFFF" d="M118.987,246.326c0.813-0.997,1.933-1.363,3.245-1.032l-0.306,1.161c-1.625-0.459-2.908,0.288-3.443,1.783
		l-1.085,4.119l-1.147-0.303l2.042-7.752l1.147,0.303L118.987,246.326z"/>
	<path fill="#FFFFFF" d="M130.313,250.089l-0.928,4.86l-1.166-0.223l0.867-4.546c0.266-1.391-0.415-2.373-1.806-2.639
		c-1.558-0.281-2.709,0.553-3.129,2.022l-0.808,4.231l-1.166-0.222l1.504-7.881l1.166,0.223l-0.331,1.734
		c0.781-1.091,1.951-1.456,3.39-1.197C129.792,246.812,130.675,248.19,130.313,250.089z"/>
	<path fill="#FFFFFF" d="M132.443,255.342l1.021-7.953l1.162,0.149l-1.021,7.952L132.443,255.342z M135.1,245.282
		c-0.061,0.468-0.437,0.772-0.874,0.716c-0.438-0.056-0.726-0.445-0.665-0.914c0.06-0.468,0.437-0.771,0.874-0.716
		C134.873,244.425,135.16,244.814,135.1,245.282z"/>
	<path fill="#FFFFFF" d="M144.493,251.444l-0.327,4.935l-1.185-0.078l0.306-4.616c0.094-1.412-0.701-2.303-2.112-2.396
		c-1.58-0.09-2.62,0.878-2.858,2.388l-0.284,4.296l-1.185-0.078l0.53-8.001l1.185,0.078l-0.117,1.762
		c0.643-1.178,1.759-1.684,3.218-1.602C143.576,248.258,144.621,249.517,144.493,251.444z"/>
	<path fill="#FFFFFF" d="M159.857,246.799l-0.676,0.97c-0.869-0.788-2.054-1.222-3.224-1.154c-2.401,0.141-4.224,2.106-4.087,4.447
		c0.136,2.325,2.175,4.082,4.575,3.942c1.171-0.068,2.282-0.621,3.072-1.46l0.793,0.793c-0.991,1.049-2.382,1.785-3.855,1.871
		c-3.07,0.179-5.641-2.065-5.816-5.075c-0.173-2.979,2.151-5.478,5.237-5.657C157.335,245.391,158.783,245.901,159.857,246.799z"/>
	<path fill="#FFFFFF" d="M163.275,249.229c0.378-1.23,1.277-1.991,2.618-2.18l0.154,1.192c-1.679,0.187-2.586,1.362-2.519,2.949
		l0.547,4.226l-1.177,0.152l-1.029-7.953l1.177-0.152L163.275,249.229z"/>
	<path fill="#FFFFFF" d="M174.996,249.935l-6.424,1.254c0.51,1.497,1.819,2.25,3.343,1.953c0.971-0.189,1.756-0.699,2.242-1.462
		l0.777,0.562c-0.584,0.982-1.597,1.676-2.911,1.933c-2.315,0.451-4.231-0.865-4.688-3.21c-0.458-2.346,0.838-4.289,3.123-4.734
		C172.995,245.72,174.593,247.237,174.996,249.935z M173.763,249.183c-0.369-1.494-1.571-2.252-3.11-1.951
		c-1.494,0.291-2.38,1.472-2.268,3.001L173.763,249.183z"/>
	<path fill="#FFFFFF" d="M182.635,250.272c-0.384,1.007-1.252,1.69-2.484,2.033c-1.598,0.443-2.91-0.298-3.28-1.632
		c-0.375-1.349,0.459-2.497,2.273-3.017l2.537-0.705l-0.127-0.454c-0.313-1.13-1.205-1.608-2.568-1.229
		c-0.851,0.236-1.553,0.778-2.204,1.56l-0.717-0.701c0.814-0.937,1.544-1.55,2.864-1.917c1.906-0.529,3.243,0.189,3.718,1.842
		l1.433,5.099l-1.114,0.31L182.635,250.272z M182.208,248.796l-0.257-0.924l-2.404,0.668c-1.29,0.358-1.855,0.941-1.619,1.792
		s1.081,1.217,2.166,0.915C181.399,250.885,182.213,249.947,182.208,248.796z"/>
	<path fill="#FFFFFF" d="M190.721,248.309c-0.406,0.545-0.911,0.946-1.51,1.171c-1.107,0.386-2.156,0.01-2.677-1.485l-1.507-4.327
		l-1.093,0.381l-0.314-0.905l1.092-0.381l-0.695-1.998l1.106-0.385l0.696,1.998l2.395-0.851l0.32,0.92l-2.4,0.836l1.437,4.125
		c0.32,0.92,0.8,1.14,1.447,0.915c0.388-0.136,0.745-0.405,1.072-0.809L190.721,248.309z"/>
	<path fill="#FFFFFF" d="M190.272,237.968c0.175,0.438-0.007,0.888-0.417,1.051s-0.852-0.038-1.025-0.477
		c-0.175-0.438,0.007-0.888,0.417-1.051C189.657,237.327,190.097,237.529,190.272,237.968z M192.831,248.059l-2.967-7.454
		l1.089-0.434l2.967,7.454L192.831,248.059z"/>
	<path fill="#FFFFFF" d="M198.552,245.639l-6.234-5.959l1.147-0.527l5.153,5.1l-0.522-7.226l1.093-0.502l0.483,8.6L198.552,245.639z
		"/>
	<path fill="#FFFFFF" d="M208.301,236.651l-5.741,3.137c0.938,1.272,2.413,1.594,3.775,0.85c0.867-0.474,1.461-1.197,1.694-2.07
		l0.91,0.301c-0.259,1.112-1.014,2.079-2.188,2.722c-2.069,1.13-4.293,0.455-5.438-1.641c-1.146-2.097-0.498-4.34,1.545-5.455
		C205.12,233.24,207.102,234.203,208.301,236.651z M206.9,236.308c-0.804-1.312-2.179-1.671-3.554-0.919
		c-1.335,0.729-1.822,2.122-1.253,3.545L206.9,236.308z"/>
</g>
<g>
	<path fill="#FFFFFF" d="M89.765,37.775l-0.132,1.216c-1.18-0.284-2.47-0.09-3.498,0.553c-2.109,1.318-2.787,4.008-1.502,6.063
		c1.277,2.043,4,2.625,6.109,1.307c1.028-0.644,1.762-1.696,2.062-2.85l1.113,0.325c-0.379,1.444-1.275,2.803-2.57,3.612
		c-2.696,1.686-6.144,0.925-7.796-1.719c-1.636-2.616-0.767-6.038,1.943-7.732C86.778,37.749,88.345,37.494,89.765,37.775z"/>
	<path fill="#FFFFFF" d="M101.043,36.895l2.286,4.583l-1.1,0.548l-2.139-4.286c-0.654-1.311-1.83-1.692-3.142-1.038
		c-1.572,0.802-1.947,2.38-1.152,3.974l1.822,3.651l-1.1,0.549L91.3,34.413l1.1-0.549l2.343,4.695
		c-0.069-1.409,0.679-2.452,2.039-3.148C98.558,34.525,100.15,35.104,101.043,36.895z"/>
	<path fill="#FFFFFF" d="M104.358,34.073c0.05-1.331,0.746-2.332,2.036-2.879l0.473,1.151c-1.629,0.635-2.222,2.053-1.731,3.622
		l1.675,4.08l-1.136,0.467l-3.152-7.68l1.137-0.466L104.358,34.073z"/>
	<path fill="#FFFFFF" d="M108.739,27.875c0.165,0.46-0.038,0.919-0.469,1.073c-0.43,0.154-0.879-0.069-1.044-0.529
		s0.039-0.918,0.469-1.073C108.125,27.191,108.574,27.416,108.739,27.875z M111.03,38.405l-2.807-7.816l1.142-0.41l2.807,7.816
		L111.03,38.405z"/>
	<path fill="#FFFFFF" d="M117.32,28.39l-0.169,1.072c-0.736-0.205-1.613-0.22-2.352,0.004c-0.89,0.27-1.473,0.791-1.249,1.529
		c0.534,1.765,4.692-0.481,5.555,2.368c0.475,1.567-0.702,2.681-2.226,3.142c-1.13,0.342-2.41,0.302-3.383-0.194l0.184-1.026
		c0.87,0.428,2.009,0.495,2.943,0.212s1.584-0.857,1.361-1.646c-0.534-1.928-4.685,0.397-5.522-2.426
		c-0.461-1.522,0.659-2.553,2.106-2.991C115.518,28.146,116.52,28.139,117.32,28.39z"/>
	<path fill="#FFFFFF" d="M125.602,33.603c-0.476,0.518-1.037,0.878-1.678,1.047c-1.179,0.28-2.22-0.217-2.6-1.81l-1.098-4.611
		l-1.164,0.277l-0.229-0.966l1.164-0.276l-0.507-2.13l1.18-0.28l0.507,2.129l2.555-0.624l0.233,0.98l-2.559,0.608l1.047,4.397
		c0.233,0.98,0.704,1.257,1.394,1.093c0.413-0.099,0.81-0.339,1.188-0.72L125.602,33.603z"/>
	<path fill="#FFFFFF" d="M134.053,28.486c0.405,2.456-1.041,4.436-3.467,4.836c-2.426,0.399-4.432-1.011-4.836-3.468
		c-0.402-2.44,1.046-4.404,3.472-4.805C131.648,24.65,133.651,26.045,134.053,28.486z M126.965,29.671
		c0.298,1.803,1.731,2.845,3.441,2.562s2.733-1.729,2.437-3.532c-0.295-1.788-1.729-2.829-3.438-2.547
		C127.694,26.436,126.67,27.883,126.965,29.671z"/>
	<path fill="#FFFFFF" d="M144.833,27.641c0.179,2.452-1.3,4.282-3.642,4.452c-1.477,0.108-2.658-0.485-3.354-1.588l0.352,4.825
		l-1.226,0.089l-0.825-11.332l1.226-0.089l0.131,1.792c0.528-1.208,1.61-1.966,3.057-2.071
		C142.893,23.548,144.653,25.158,144.833,27.641z M143.59,27.7c-0.13-1.776-1.45-2.991-3.18-2.865
		c-1.744,0.127-2.876,1.505-2.746,3.297c0.132,1.807,1.45,2.991,3.195,2.864C142.588,30.87,143.72,29.492,143.59,27.7z"/>
	<path fill="#FFFFFF" d="M154.826,26.782l-0.099,5.117l-1.229-0.023l0.093-4.787c0.028-1.465-0.837-2.348-2.301-2.376
		c-1.765-0.019-2.828,1.205-2.862,2.984l-0.079,4.079l-1.229-0.024l0.227-11.684l1.229,0.023l-0.102,5.244
		c0.592-1.281,1.737-1.857,3.266-1.844C153.723,23.531,154.865,24.782,154.826,26.782z"/>
	<path fill="#FFFFFF" d="M171.669,24.504l-0.895,0.834c-0.707-0.986-1.811-1.683-3.009-1.869c-2.46-0.381-4.73,1.212-5.102,3.609
		c-0.369,2.381,1.312,4.602,3.771,4.982c1.198,0.186,2.442-0.132,3.424-0.809l0.63,0.975c-1.23,0.845-2.797,1.288-4.307,1.054
		c-3.144-0.487-5.256-3.316-4.778-6.397c0.473-3.051,3.367-5.072,6.527-4.583C169.425,22.531,170.779,23.362,171.669,24.504z"/>
	<path fill="#FFFFFF" d="M173.13,33.461l5.17,1.284l-0.256,1.041l-6.607-1.637l0.222-0.903l6.548-4.867l-4.909-1.221l0.256-1.041
		l6.348,1.573l-0.222,0.903L173.13,33.461z"/>
	<path fill="#FFFFFF" d="M187.736,35.031l-6.437-2.119c-0.298,1.611,0.504,2.953,2.031,3.456c0.973,0.32,1.939,0.257,2.765-0.185
		l0.417,0.9c-1.024,0.592-2.29,0.706-3.606,0.272c-2.32-0.764-3.385-2.923-2.611-5.272c0.773-2.351,2.928-3.45,5.218-2.695
		C188.062,30.211,188.738,32.392,187.736,35.031z M187.003,33.729c0.423-1.536-0.279-2.83-1.821-3.337
		c-1.497-0.493-2.895,0.125-3.567,1.562L187.003,33.729z"/>
	<path fill="#FFFFFF" d="M191.962,33.749c0.968-0.917,2.167-1.145,3.472-0.631l-0.469,1.153c-1.608-0.688-3.026-0.09-3.774,1.376
		l-1.662,4.089l-1.139-0.464l3.128-7.695l1.139,0.463L191.962,33.749z"/>
	<path fill="#FFFFFF" d="M202.706,40.191l-2.267,4.592l-1.102-0.544l2.12-4.295c0.648-1.314,0.24-2.482-1.073-3.131
		c-1.477-0.711-2.855-0.196-3.68,1.154l-1.974,3.998l-1.102-0.544l3.675-7.446l1.102,0.544l-0.809,1.64
		c1.08-0.873,2.349-0.914,3.712-0.259C203.089,36.778,203.591,38.396,202.706,40.191z"/>
	<path fill="#FFFFFF" d="M202.65,46.089l4.149-7.189l1.051,0.606l-4.149,7.189L202.65,46.089z M209.203,37.541
		c-0.244,0.423-0.726,0.563-1.121,0.335s-0.515-0.716-0.271-1.139s0.726-0.563,1.121-0.335S209.447,37.118,209.203,37.541z"/>
	<path fill="#FFFFFF" d="M215.321,48.062l-2.842,4.26l-1.021-0.682l2.657-3.985c0.813-1.219,0.561-2.429-0.659-3.242
		c-1.371-0.896-2.805-0.564-3.797,0.668l-2.475,3.709l-1.022-0.682l4.607-6.908l1.022,0.683l-1.014,1.521
		c1.185-0.726,2.447-0.603,3.714,0.224C216.143,44.728,216.431,46.396,215.321,48.062z"/>
</g>
<g>
	<g>
		<path fill="#FFFFFF" d="M211.197,81.597c-2.226,0-4.036,1.811-4.036,4.036c0,2.227,1.811,4.037,4.036,4.037
			s4.037-1.811,4.037-4.037C215.234,83.407,213.422,81.597,211.197,81.597z M85.908,81.597c-2.226,0-4.037,1.811-4.037,4.036
			c0,2.227,1.812,4.037,4.037,4.037s4.037-1.811,4.037-4.037C89.945,83.407,88.133,81.597,85.908,81.597z M200.125,69.812
			c-2.226,0-4.036,1.811-4.036,4.035c0,2.226,1.811,4.037,4.036,4.037s4.036-1.812,4.036-4.037
			C204.161,71.623,202.35,69.812,200.125,69.812z M97.949,69.812c-2.226,0-4.037,1.811-4.037,4.035c0,2.226,1.812,4.037,4.037,4.037
			c2.225,0,4.035-1.812,4.035-4.037C101.984,71.623,100.173,69.812,97.949,69.812z M185.275,60.402c-2.226,0-4.037,1.81-4.037,4.035
			s1.812,4.036,4.037,4.036s4.036-1.811,4.036-4.036S187.5,60.402,185.275,60.402z M112.929,60.402c-2.227,0-4.037,1.81-4.037,4.035
			s1.811,4.036,4.037,4.036c2.226,0,4.037-1.811,4.037-4.036S115.155,60.402,112.929,60.402z M167.613,54.152
			c-2.226,0-4.036,1.811-4.036,4.035c0,2.226,1.811,4.037,4.036,4.037s4.036-1.812,4.036-4.037
			C171.649,55.963,169.838,54.152,167.613,54.152z M129.91,54.152c-2.226,0-4.037,1.811-4.037,4.035
			c0,2.226,1.812,4.037,4.037,4.037c2.225,0,4.035-1.812,4.035-4.037C133.945,55.963,132.134,54.152,129.91,54.152z M148.552,51.042
			c-2.226,0-4.037,1.811-4.037,4.036s1.812,4.036,4.037,4.036s4.037-1.811,4.037-4.036S150.778,51.042,148.552,51.042z"/>
	</g>
</g>
<g>
	<path fill="#FFFFFF" d="M88.568,198.353l-1.173,1.462c-0.866-0.935-2.107-1.513-3.314-1.513c-2.38,0-4.249,1.836-4.249,4.182
		s1.869,4.198,4.249,4.198c1.19,0,2.414-0.544,3.314-1.41l1.19,1.325c-1.207,1.19-2.924,1.955-4.606,1.955
		c-3.485,0-6.188-2.635-6.188-6.052c0-3.382,2.736-5.983,6.255-5.983C85.73,196.517,87.413,197.214,88.568,198.353z"/>
	<path fill="#FFFFFF" d="M100.74,203.537c0,3.111-1.955,5.015-5.167,5.015c-3.213,0-5.185-1.903-5.185-5.015v-6.969h2.006v6.969
		c0,2.006,1.24,3.213,3.195,3.213c1.938,0,3.145-1.189,3.145-3.213v-6.969h2.006V203.537z"/>
	<path fill="#FFFFFF" d="M111.688,197.707l-0.833,1.768c-1.291-0.782-2.583-1.104-3.484-1.104c-1.173,0-1.938,0.441-1.938,1.24
		c0,2.601,6.425,1.207,6.408,5.491c0,2.124-1.87,3.434-4.487,3.434c-1.87,0-3.638-0.766-4.861-1.887l0.866-1.734
		c1.225,1.122,2.754,1.734,4.029,1.734c1.394,0,2.227-0.527,2.227-1.445c0-2.651-6.426-1.173-6.426-5.405
		c0-2.04,1.751-3.314,4.335-3.314C109.071,196.483,110.583,196.976,111.688,197.707z"/>
	<path fill="#FFFFFF" d="M118.54,198.37v10.097h-2.006V198.37h-3.756v-1.802h9.536v1.802H118.54z"/>
	<path fill="#FFFFFF" d="M134.944,202.518c0,3.399-2.754,6.034-6.306,6.034c-3.553,0-6.307-2.635-6.307-6.034
		c0-3.417,2.754-6.001,6.307-6.001C132.19,196.517,134.944,199.118,134.944,202.518z M124.372,202.518
		c0,2.362,1.954,4.232,4.283,4.232s4.232-1.87,4.232-4.232c0-2.363-1.903-4.199-4.232-4.199
		C126.309,198.318,124.372,200.154,124.372,202.518z"/>
	<path fill="#FFFFFF" d="M147.813,208.467l-0.018-8.89l-3.756,7.648h-1.31l-3.757-7.648v8.89h-1.887v-11.898h2.38l3.927,7.904
		l3.91-7.904h2.362v11.898H147.813z"/>
	<path fill="#FFFFFF" d="M161.226,203.214l-2.023,2.228v3.025h-2.006v-11.898h2.006v6.153l5.678-6.153h2.362l-4.606,5.082
		l4.913,6.816h-2.414L161.226,203.214z"/>
	<path fill="#FFFFFF" d="M177.75,208.467l-6.341-8.533v8.533h-2.006v-11.898h1.972l6.375,8.55v-8.55h1.972v11.898H177.75z"/>
	<path fill="#FFFFFF" d="M182.867,208.467v-11.898h2.006v11.898H182.867z"/>
	<path fill="#FFFFFF" d="M191.231,208.467l-4.743-11.898h2.159l3.672,9.672l3.705-9.672h2.091l-4.811,11.898H191.231z"/>
	<path fill="#FFFFFF" d="M201.736,198.37v3.212h5.813v1.803h-5.813v3.28h6.697v1.802h-8.703v-11.898h8.5v1.802H201.736z"/>
	<path fill="#FFFFFF" d="M218.956,197.707l-0.833,1.768c-1.291-0.782-2.583-1.104-3.484-1.104c-1.173,0-1.938,0.441-1.938,1.24
		c0,2.601,6.425,1.207,6.408,5.491c0,2.124-1.87,3.434-4.487,3.434c-1.87,0-3.638-0.766-4.861-1.887l0.866-1.734
		c1.225,1.122,2.754,1.734,4.029,1.734c1.394,0,2.227-0.527,2.227-1.445c0-2.651-6.426-1.173-6.426-5.405
		c0-2.04,1.751-3.314,4.335-3.314C216.338,196.483,217.851,196.976,218.956,197.707z"/>
</g>
<g>
	<g>
		<path fill="#FFFFFF" d="M95.843,114.533c-5.941,7.042-8.917,15.06-8.917,24.05c0,10.033,3.551,18.597,10.655,25.702
			c7.131,7.039,15.743,10.562,25.834,10.562c6.707,0,13.108-1.73,19.205-5.191v-12.872c-1.738,1.463-3.392,2.714-4.961,3.75
			c-1.57,1.036-3.086,1.858-4.549,2.47c-2.622,1.219-5.809,1.826-9.557,1.826c-7.257,0-13.385-2.544-18.383-7.635
			c-5-5.091-7.497-11.341-7.497-18.746c0-7.501,2.497-13.84,7.497-19.023c4.969-5.213,11.08-7.818,18.337-7.818
			c6.584,0,12.955,2.576,19.112,7.727v-12.598c-5.912-3.429-12.042-5.145-18.382-5.145
			C112.625,101.592,103.16,105.908,95.843,114.533z"/>
	</g>
	<g>
		<path fill="#FFFFFF" d="M189.125,111.607c6.585,0,12.955,2.576,19.112,7.727v-12.598c-5.913-3.429-12.044-5.145-18.38-5.145
			c-11.615,0-21.081,4.316-28.397,12.941c-5.942,7.042-8.917,15.06-8.917,24.05c0,10.033,3.551,18.597,10.654,25.702
			c7.135,7.039,15.746,10.562,25.835,10.562c6.706,0,13.109-1.73,19.205-5.191v-12.872c-1.737,1.463-3.392,2.714-4.962,3.75
			s-3.086,1.858-4.55,2.47c-2.622,1.219-5.808,1.826-9.554,1.826c-7.257,0-13.385-2.544-18.385-7.635
			c-4.998-5.091-7.496-11.341-7.496-18.746c0-7.501,2.498-13.84,7.496-19.023C175.755,114.213,181.869,111.607,189.125,111.607z"/>
	</g>
</g>
<g>
	<path fill="#FFFFFF" stroke="#2A3C48" stroke-miterlimit="10" d="M96.714,241.193"/>
</g>
</svg>
